<svg xmlns="http://www.w3.org/2000/svg" xmlns:xlink="http://www.w3.org/1999/xlink" width="1200" zoomAndPan="magnify" viewBox="0 0 900 179.999997" height="240" preserveAspectRatio="xMidYMid meet" version="1.0"><defs><g/><clipPath id="34aa02b63a"><path d="M 621.429688 20 L 714.507812 20 L 714.507812 160 L 621.429688 160 Z M 621.429688 20 " clip-rule="nonzero"/></clipPath><clipPath id="9e8f57bcc1"><rect x="0" width="886" y="0" height="162"/></clipPath></defs><g transform="matrix(1, 0, 0, 1, 1, 12)"><g clip-path="url(#9e8f57bcc1)"><g fill="#ffffff" fill-opacity="1"><g transform="translate(1.051212, 108.517101)"><g><path d="M 44.453125 -85.734375 C 55.234375 -85.734375 64.09375 -83.546875 71.03125 -79.171875 C 77.96875 -74.804688 81.519531 -68.335938 81.6875 -59.765625 L 81.6875 -58.296875 L 56.328125 -58.296875 L 56.328125 -58.78125 C 56.328125 -61.226562 55.429688 -63.269531 53.640625 -64.90625 C 51.847656 -66.539062 49.113281 -67.359375 45.4375 -67.359375 C 41.84375 -67.359375 39.085938 -66.828125 37.171875 -65.765625 C 35.253906 -64.703125 34.296875 -63.394531 34.296875 -61.84375 C 34.296875 -59.644531 35.597656 -58.015625 38.203125 -56.953125 C 40.816406 -55.890625 45.023438 -54.785156 50.828125 -53.640625 C 57.597656 -52.253906 63.164062 -50.804688 67.53125 -49.296875 C 71.90625 -47.785156 75.722656 -45.3125 78.984375 -41.875 C 82.253906 -38.445312 83.929688 -33.796875 84.015625 -27.921875 C 84.015625 -17.960938 80.644531 -10.570312 73.90625 -5.75 C 67.175781 -0.9375 58.175781 1.46875 46.90625 1.46875 C 33.757812 1.46875 23.53125 -0.734375 16.21875 -5.140625 C 8.914062 -9.546875 5.265625 -17.34375 5.265625 -28.53125 L 30.859375 -28.53125 C 30.859375 -24.289062 31.957031 -21.453125 34.15625 -20.015625 C 36.363281 -18.585938 39.796875 -17.875 44.453125 -17.875 C 47.878906 -17.875 50.710938 -18.238281 52.953125 -18.96875 C 55.203125 -19.707031 56.328125 -21.222656 56.328125 -23.515625 C 56.328125 -25.554688 55.082031 -27.085938 52.59375 -28.109375 C 50.101562 -29.128906 46.046875 -30.210938 40.421875 -31.359375 C 33.554688 -32.828125 27.878906 -34.351562 23.390625 -35.9375 C 18.898438 -37.53125 14.976562 -40.164062 11.625 -43.84375 C 8.28125 -47.519531 6.609375 -52.5 6.609375 -58.78125 C 6.609375 -68.007812 10.179688 -74.804688 17.328125 -79.171875 C 24.472656 -83.546875 33.515625 -85.734375 44.453125 -85.734375 Z M 44.453125 -85.734375 "/></g></g></g><g fill="#ffffff" fill-opacity="1"><g transform="translate(78.568015, 108.517101)"><g><path d="M 50.953125 -85.734375 C 65.484375 -85.734375 76.707031 -82.015625 84.625 -74.578125 C 92.539062 -67.148438 96.5 -56.332031 96.5 -42.125 C 96.5 -27.914062 92.539062 -17.097656 84.625 -9.671875 C 76.707031 -2.242188 65.484375 1.46875 50.953125 1.46875 C 36.410156 1.46875 25.203125 -2.222656 17.328125 -9.609375 C 9.453125 -17.003906 5.515625 -27.84375 5.515625 -42.125 C 5.515625 -56.414062 9.453125 -67.253906 17.328125 -74.640625 C 25.203125 -82.035156 36.410156 -85.734375 50.953125 -85.734375 Z M 50.953125 -65.515625 C 45.148438 -65.515625 40.738281 -63.757812 37.71875 -60.25 C 34.695312 -56.738281 33.1875 -52.003906 33.1875 -46.046875 L 33.1875 -38.203125 C 33.1875 -32.242188 34.695312 -27.507812 37.71875 -24 C 40.738281 -20.488281 45.148438 -18.734375 50.953125 -18.734375 C 56.742188 -18.734375 61.171875 -20.488281 64.234375 -24 C 67.296875 -27.507812 68.828125 -32.242188 68.828125 -38.203125 L 68.828125 -46.046875 C 68.828125 -52.003906 67.296875 -56.738281 64.234375 -60.25 C 61.171875 -63.757812 56.742188 -65.515625 50.953125 -65.515625 Z M 50.953125 -65.515625 "/></g></g></g><g fill="#ffffff" fill-opacity="1"><g transform="translate(169.677942, 108.517101)"><g><path d="M 92.953125 -33.921875 C 92.953125 -22.410156 89.316406 -13.632812 82.046875 -7.59375 C 74.785156 -1.550781 64.457031 1.46875 51.0625 1.46875 C 37.675781 1.46875 27.328125 -1.550781 20.015625 -7.59375 C 12.710938 -13.632812 9.0625 -22.410156 9.0625 -33.921875 L 9.0625 -84.265625 L 36.125 -84.265625 L 36.125 -34.296875 C 36.125 -29.554688 37.390625 -25.773438 39.921875 -22.953125 C 42.453125 -20.140625 46.128906 -18.734375 50.953125 -18.734375 C 55.765625 -18.734375 59.457031 -20.160156 62.03125 -23.015625 C 64.601562 -25.878906 65.890625 -29.640625 65.890625 -34.296875 L 65.890625 -84.265625 L 92.953125 -84.265625 Z M 92.953125 -33.921875 "/></g></g></g><g fill="#ffffff" fill-opacity="1"><g transform="translate(260.787878, 108.517101)"><g><path d="M 69.3125 0 L 33.921875 -40.90625 L 33.921875 0 L 9.0625 0 L 9.0625 -84.265625 L 32.703125 -84.265625 L 68.09375 -42.734375 L 68.09375 -84.265625 L 92.953125 -84.265625 L 92.953125 0 Z M 69.3125 0 "/></g></g></g><g fill="#ffffff" fill-opacity="1"><g transform="translate(351.897778, 108.517101)"><g><path d="M 45.5625 -84.265625 C 75.03125 -84.265625 89.765625 -70.21875 89.765625 -42.125 C 89.765625 -14.039062 75.03125 0 45.5625 0 L 9.0625 0 L 9.0625 -84.265625 Z M 36.125 -20.203125 L 45.0625 -20.203125 C 56.414062 -20.203125 62.09375 -26.285156 62.09375 -38.453125 L 62.09375 -45.796875 C 62.09375 -57.960938 56.414062 -64.046875 45.0625 -64.046875 L 36.125 -64.046875 Z M 36.125 -20.203125 "/></g></g></g><g fill="#ffffff" fill-opacity="1"><g transform="translate(436.272394, 108.517101)"><g><path d="M 9.0625 -84.265625 L 81.9375 -84.265625 L 81.9375 -64.046875 L 36.125 -64.046875 L 36.125 -52.421875 L 75.3125 -52.421875 L 75.3125 -33.0625 L 36.125 -33.0625 L 36.125 -20.203125 L 82.78125 -20.203125 L 82.78125 0 L 9.0625 0 Z M 9.0625 -84.265625 "/></g></g></g><g fill="#ffffff" fill-opacity="1"><g transform="translate(513.789188, 108.517101)"><g><path d="M 45.5625 -84.265625 C 75.03125 -84.265625 89.765625 -70.21875 89.765625 -42.125 C 89.765625 -14.039062 75.03125 0 45.5625 0 L 9.0625 0 L 9.0625 -84.265625 Z M 36.125 -20.203125 L 45.0625 -20.203125 C 56.414062 -20.203125 62.09375 -26.285156 62.09375 -38.453125 L 62.09375 -45.796875 C 62.09375 -57.960938 56.414062 -64.046875 45.0625 -64.046875 L 36.125 -64.046875 Z M 36.125 -20.203125 "/></g></g></g><g fill="#ffffff" fill-opacity="1"><g transform="translate(598.166106, 108.517101)"><g/></g></g><g clip-path="url(#34aa02b63a)"><path fill="#ab67f7" d="M 667.957031 20.285156 C 642.246094 20.285156 621.398438 41.132812 621.398438 66.851562 C 621.398438 92.5625 667.957031 159.957031 667.957031 159.957031 C 667.957031 159.957031 714.515625 92.5625 714.515625 66.851562 C 714.515625 41.132812 693.664062 20.285156 667.957031 20.285156 Z M 667.957031 88.894531 C 654.421875 88.894531 643.453125 77.933594 643.453125 64.390625 C 643.453125 50.863281 654.421875 39.894531 667.957031 39.894531 C 681.492188 39.894531 692.449219 50.863281 692.449219 64.390625 C 692.449219 77.933594 681.492188 88.894531 667.957031 88.894531 Z M 667.957031 88.894531 " fill-opacity="1" fill-rule="nonzero"/></g><g fill="#ab67f7" fill-opacity="1"><g transform="translate(617.202598, 108.517101)"><g><path d="M 50.953125 -85.734375 C 65.484375 -85.734375 76.707031 -82.015625 84.625 -74.578125 C 92.539062 -67.148438 96.5 -56.332031 96.5 -42.125 C 96.5 -27.914062 92.539062 -17.097656 84.625 -9.671875 C 76.707031 -2.242188 65.484375 1.46875 50.953125 1.46875 C 36.410156 1.46875 25.203125 -2.222656 17.328125 -9.609375 C 9.453125 -17.003906 5.515625 -27.84375 5.515625 -42.125 C 5.515625 -56.414062 9.453125 -67.253906 17.328125 -74.640625 C 25.203125 -82.035156 36.410156 -85.734375 50.953125 -85.734375 Z M 50.953125 -65.515625 C 45.148438 -65.515625 40.738281 -63.757812 37.71875 -60.25 C 34.695312 -56.738281 33.1875 -52.003906 33.1875 -46.046875 L 33.1875 -38.203125 C 33.1875 -32.242188 34.695312 -27.507812 37.71875 -24 C 40.738281 -20.488281 45.148438 -18.734375 50.953125 -18.734375 C 56.742188 -18.734375 61.171875 -20.488281 64.234375 -24 C 67.296875 -27.507812 68.828125 -32.242188 68.828125 -38.203125 L 68.828125 -46.046875 C 68.828125 -52.003906 67.296875 -56.738281 64.234375 -60.25 C 61.171875 -63.757812 56.742188 -65.515625 50.953125 -65.515625 Z M 50.953125 -65.515625 "/></g></g></g><g fill="#ab67f7" fill-opacity="1"><g transform="translate(708.312525, 108.517101)"><g><path d="M 92.953125 -33.921875 C 92.953125 -22.410156 89.316406 -13.632812 82.046875 -7.59375 C 74.785156 -1.550781 64.457031 1.46875 51.0625 1.46875 C 37.675781 1.46875 27.328125 -1.550781 20.015625 -7.59375 C 12.710938 -13.632812 9.0625 -22.410156 9.0625 -33.921875 L 9.0625 -84.265625 L 36.125 -84.265625 L 36.125 -34.296875 C 36.125 -29.554688 37.390625 -25.773438 39.921875 -22.953125 C 42.453125 -20.140625 46.128906 -18.734375 50.953125 -18.734375 C 55.765625 -18.734375 59.457031 -20.160156 62.03125 -23.015625 C 64.601562 -25.878906 65.890625 -29.640625 65.890625 -34.296875 L 65.890625 -84.265625 L 92.953125 -84.265625 Z M 92.953125 -33.921875 "/></g></g></g><g fill="#ab67f7" fill-opacity="1"><g transform="translate(799.422452, 108.517101)"><g><path d="M 57.5625 -62.703125 L 57.5625 0 L 30.5 0 L 30.5 -62.703125 L 2.8125 -62.703125 L 2.8125 -84.265625 L 85.109375 -84.265625 L 85.109375 -62.703125 Z M 57.5625 -62.703125 "/></g></g></g></g></g></svg>
