<svg xmlns="http://www.w3.org/2000/svg" xmlns:xlink="http://www.w3.org/1999/xlink" width="512" zoomAndPan="magnify" viewBox="0 0 384 383.999986" height="512" preserveAspectRatio="xMidYMid meet" version="1.0"><defs><clipPath id="08ed869259"><path d="M 90.902344 40 L 293.402344 40 L 293.402344 344 L 90.902344 344 Z M 90.902344 40 " clip-rule="nonzero"/></clipPath></defs><g clip-path="url(#08ed869259)"><path fill="#ab67f7" d="M 191.992188 40.167969 C 136.136719 40.167969 90.839844 85.460938 90.839844 141.339844 C 90.839844 197.195312 191.992188 343.621094 191.992188 343.621094 C 191.992188 343.621094 293.144531 197.195312 293.144531 141.339844 C 293.144531 85.460938 247.847656 40.167969 191.992188 40.167969 Z M 191.992188 189.230469 C 162.585938 189.230469 138.753906 165.417969 138.753906 135.988281 C 138.753906 106.609375 162.585938 82.773438 191.992188 82.773438 C 221.394531 82.773438 245.207031 106.609375 245.207031 135.988281 C 245.207031 165.417969 221.394531 189.230469 191.992188 189.230469 Z M 191.992188 189.230469 " fill-opacity="1" fill-rule="nonzero"/></g></svg>