<svg xmlns="http://www.w3.org/2000/svg" xmlns:xlink="http://www.w3.org/1999/xlink" width="500" zoomAndPan="magnify" viewBox="0 0 375 374.999991" height="500" preserveAspectRatio="xMidYMid meet" version="1.0"><defs><g/><clipPath id="ed489d50c3"><path d="M 252.535156 8.46875 L 290.367188 8.46875 L 290.367188 65.9375 L 252.535156 65.9375 Z M 252.535156 8.46875 " clip-rule="nonzero"/></clipPath><clipPath id="d014fdc43b"><path d="M 326 10 L 359.878906 10 L 359.878906 45 L 326 45 Z M 326 10 " clip-rule="nonzero"/></clipPath><clipPath id="5b0ad3990f"><rect x="0" width="360" y="0" height="67"/></clipPath></defs><g transform="matrix(1, 0, 0, 1, 9, 149)"><g clip-path="url(#5b0ad3990f)"><g fill="#ffffff" fill-opacity="1"><g transform="translate(0.360989, 44.663635)"><g><path d="M 18.078125 -34.84375 C 22.453125 -34.84375 26.050781 -33.953125 28.875 -32.171875 C 31.695312 -30.398438 33.140625 -27.773438 33.203125 -24.296875 L 33.203125 -23.703125 L 22.90625 -23.703125 L 22.90625 -23.890625 C 22.90625 -24.890625 22.535156 -25.71875 21.796875 -26.375 C 21.066406 -27.039062 19.957031 -27.375 18.46875 -27.375 C 17.007812 -27.375 15.890625 -27.15625 15.109375 -26.71875 C 14.328125 -26.289062 13.9375 -25.765625 13.9375 -25.140625 C 13.9375 -24.242188 14.46875 -23.578125 15.53125 -23.140625 C 16.59375 -22.710938 18.300781 -22.265625 20.65625 -21.796875 C 23.414062 -21.234375 25.679688 -20.644531 27.453125 -20.03125 C 29.234375 -19.414062 30.785156 -18.410156 32.109375 -17.015625 C 33.429688 -15.628906 34.113281 -13.738281 34.15625 -11.34375 C 34.15625 -7.300781 32.785156 -4.300781 30.046875 -2.34375 C 27.304688 -0.382812 23.644531 0.59375 19.0625 0.59375 C 13.71875 0.59375 9.5625 -0.300781 6.59375 -2.09375 C 3.625 -3.882812 2.140625 -7.050781 2.140625 -11.59375 L 12.546875 -11.59375 C 12.546875 -9.875 12.992188 -8.722656 13.890625 -8.140625 C 14.785156 -7.554688 16.179688 -7.265625 18.078125 -7.265625 C 19.460938 -7.265625 20.613281 -7.414062 21.53125 -7.71875 C 22.445312 -8.019531 22.90625 -8.632812 22.90625 -9.5625 C 22.90625 -10.382812 22.394531 -11.003906 21.375 -11.421875 C 20.363281 -11.835938 18.710938 -12.28125 16.421875 -12.75 C 13.640625 -13.34375 11.332031 -13.960938 9.5 -14.609375 C 7.675781 -15.253906 6.082031 -16.320312 4.71875 -17.8125 C 3.363281 -19.3125 2.6875 -21.335938 2.6875 -23.890625 C 2.6875 -27.640625 4.140625 -30.398438 7.046875 -32.171875 C 9.953125 -33.953125 13.628906 -34.84375 18.078125 -34.84375 Z M 18.078125 -34.84375 "/></g></g></g><g fill="#ffffff" fill-opacity="1"><g transform="translate(31.870249, 44.663635)"><g><path d="M 20.703125 -34.84375 C 26.609375 -34.84375 31.171875 -33.332031 34.390625 -30.3125 C 37.617188 -27.289062 39.234375 -22.894531 39.234375 -17.125 C 39.234375 -11.351562 37.617188 -6.957031 34.390625 -3.9375 C 31.171875 -0.914062 26.609375 0.59375 20.703125 0.59375 C 14.796875 0.59375 10.238281 -0.90625 7.03125 -3.90625 C 3.832031 -6.90625 2.234375 -11.3125 2.234375 -17.125 C 2.234375 -22.9375 3.832031 -27.34375 7.03125 -30.34375 C 10.238281 -33.34375 14.796875 -34.84375 20.703125 -34.84375 Z M 20.703125 -26.640625 C 18.347656 -26.640625 16.554688 -25.925781 15.328125 -24.5 C 14.097656 -23.070312 13.484375 -21.144531 13.484375 -18.71875 L 13.484375 -15.53125 C 13.484375 -13.101562 14.097656 -11.175781 15.328125 -9.75 C 16.554688 -8.320312 18.347656 -7.609375 20.703125 -7.609375 C 23.066406 -7.609375 24.867188 -8.320312 26.109375 -9.75 C 27.359375 -11.175781 27.984375 -13.101562 27.984375 -15.53125 L 27.984375 -18.71875 C 27.984375 -21.144531 27.359375 -23.070312 26.109375 -24.5 C 24.867188 -25.925781 23.066406 -26.640625 20.703125 -26.640625 Z M 20.703125 -26.640625 "/></g></g></g><g fill="#ffffff" fill-opacity="1"><g transform="translate(68.904883, 44.663635)"><g><path d="M 37.78125 -13.796875 C 37.78125 -9.109375 36.300781 -5.535156 33.34375 -3.078125 C 30.394531 -0.628906 26.203125 0.59375 20.765625 0.59375 C 15.316406 0.59375 11.109375 -0.628906 8.140625 -3.078125 C 5.171875 -5.535156 3.6875 -9.109375 3.6875 -13.796875 L 3.6875 -34.25 L 14.6875 -34.25 L 14.6875 -13.9375 C 14.6875 -12.007812 15.195312 -10.472656 16.21875 -9.328125 C 17.25 -8.179688 18.742188 -7.609375 20.703125 -7.609375 C 22.660156 -7.609375 24.160156 -8.1875 25.203125 -9.34375 C 26.253906 -10.507812 26.78125 -12.039062 26.78125 -13.9375 L 26.78125 -34.25 L 37.78125 -34.25 Z M 37.78125 -13.796875 "/></g></g></g><g fill="#ffffff" fill-opacity="1"><g transform="translate(105.939521, 44.663635)"><g><path d="M 28.171875 0 L 13.796875 -16.625 L 13.796875 0 L 3.6875 0 L 3.6875 -34.25 L 13.296875 -34.25 L 27.671875 -17.375 L 27.671875 -34.25 L 37.78125 -34.25 L 37.78125 0 Z M 28.171875 0 "/></g></g></g><g fill="#ffffff" fill-opacity="1"><g transform="translate(142.974144, 44.663635)"><g><path d="M 18.515625 -34.25 C 30.492188 -34.25 36.484375 -28.539062 36.484375 -17.125 C 36.484375 -5.707031 30.492188 0 18.515625 0 L 3.6875 0 L 3.6875 -34.25 Z M 14.6875 -8.21875 L 18.3125 -8.21875 C 22.925781 -8.21875 25.234375 -10.6875 25.234375 -15.625 L 25.234375 -18.625 C 25.234375 -23.5625 22.925781 -26.03125 18.3125 -26.03125 L 14.6875 -26.03125 Z M 14.6875 -8.21875 "/></g></g></g><g fill="#ffffff" fill-opacity="1"><g transform="translate(177.270989, 44.663635)"><g><path d="M 3.6875 -34.25 L 33.296875 -34.25 L 33.296875 -26.03125 L 14.6875 -26.03125 L 14.6875 -21.3125 L 30.609375 -21.3125 L 30.609375 -13.4375 L 14.6875 -13.4375 L 14.6875 -8.21875 L 33.65625 -8.21875 L 33.65625 0 L 3.6875 0 Z M 3.6875 -34.25 "/></g></g></g><g fill="#ffffff" fill-opacity="1"><g transform="translate(208.780246, 44.663635)"><g><path d="M 18.515625 -34.25 C 30.492188 -34.25 36.484375 -28.539062 36.484375 -17.125 C 36.484375 -5.707031 30.492188 0 18.515625 0 L 3.6875 0 L 3.6875 -34.25 Z M 14.6875 -8.21875 L 18.3125 -8.21875 C 22.925781 -8.21875 25.234375 -10.6875 25.234375 -15.625 L 25.234375 -18.625 C 25.234375 -23.5625 22.925781 -26.03125 18.3125 -26.03125 L 14.6875 -26.03125 Z M 14.6875 -8.21875 "/></g></g></g><g fill="#ffffff" fill-opacity="1"><g transform="translate(243.078027, 44.663635)"><g/></g></g><g clip-path="url(#ed489d50c3)"><path fill="#ab67f7" d="M 271.445312 8.796875 C 260.996094 8.796875 252.523438 17.273438 252.523438 27.726562 C 252.523438 38.175781 271.445312 65.574219 271.445312 65.574219 C 271.445312 65.574219 290.371094 38.175781 290.371094 27.726562 C 290.371094 17.273438 281.898438 8.796875 271.445312 8.796875 Z M 271.445312 36.6875 C 265.945312 36.6875 261.484375 32.234375 261.484375 26.726562 C 261.484375 21.230469 265.945312 16.769531 271.445312 16.769531 C 276.949219 16.769531 281.402344 21.230469 281.402344 26.726562 C 281.402344 32.234375 276.949219 36.6875 271.445312 36.6875 Z M 271.445312 36.6875 " fill-opacity="1" fill-rule="nonzero"/></g><g fill="#ab67f7" fill-opacity="1"><g transform="translate(250.816035, 44.663635)"><g><path d="M 20.703125 -34.84375 C 26.609375 -34.84375 31.171875 -33.332031 34.390625 -30.3125 C 37.617188 -27.289062 39.234375 -22.894531 39.234375 -17.125 C 39.234375 -11.351562 37.617188 -6.957031 34.390625 -3.9375 C 31.171875 -0.914062 26.609375 0.59375 20.703125 0.59375 C 14.796875 0.59375 10.238281 -0.90625 7.03125 -3.90625 C 3.832031 -6.90625 2.234375 -11.3125 2.234375 -17.125 C 2.234375 -22.9375 3.832031 -27.34375 7.03125 -30.34375 C 10.238281 -33.34375 14.796875 -34.84375 20.703125 -34.84375 Z M 20.703125 -26.640625 C 18.347656 -26.640625 16.554688 -25.925781 15.328125 -24.5 C 14.097656 -23.070312 13.484375 -21.144531 13.484375 -18.71875 L 13.484375 -15.53125 C 13.484375 -13.101562 14.097656 -11.175781 15.328125 -9.75 C 16.554688 -8.320312 18.347656 -7.609375 20.703125 -7.609375 C 23.066406 -7.609375 24.867188 -8.320312 26.109375 -9.75 C 27.359375 -11.175781 27.984375 -13.101562 27.984375 -15.53125 L 27.984375 -18.71875 C 27.984375 -21.144531 27.359375 -23.070312 26.109375 -24.5 C 24.867188 -25.925781 23.066406 -26.640625 20.703125 -26.640625 Z M 20.703125 -26.640625 "/></g></g></g><g fill="#ab67f7" fill-opacity="1"><g transform="translate(287.850669, 44.663635)"><g><path d="M 37.78125 -13.796875 C 37.78125 -9.109375 36.300781 -5.535156 33.34375 -3.078125 C 30.394531 -0.628906 26.203125 0.59375 20.765625 0.59375 C 15.316406 0.59375 11.109375 -0.628906 8.140625 -3.078125 C 5.171875 -5.535156 3.6875 -9.109375 3.6875 -13.796875 L 3.6875 -34.25 L 14.6875 -34.25 L 14.6875 -13.9375 C 14.6875 -12.007812 15.195312 -10.472656 16.21875 -9.328125 C 17.25 -8.179688 18.742188 -7.609375 20.703125 -7.609375 C 22.660156 -7.609375 24.160156 -8.1875 25.203125 -9.34375 C 26.253906 -10.507812 26.78125 -12.039062 26.78125 -13.9375 L 26.78125 -34.25 L 37.78125 -34.25 Z M 37.78125 -13.796875 "/></g></g></g><g clip-path="url(#d014fdc43b)"><g fill="#ab67f7" fill-opacity="1"><g transform="translate(324.885303, 44.663635)"><g><path d="M 23.390625 -25.484375 L 23.390625 0 L 12.390625 0 L 12.390625 -25.484375 L 1.140625 -25.484375 L 1.140625 -34.25 L 34.59375 -34.25 L 34.59375 -25.484375 Z M 23.390625 -25.484375 "/></g></g></g></g></g></g></svg>
